<?xml version="1.0" standalone="no"?>
<!DOCTYPE svg PUBLIC "-//W3C//DTD SVG 20010904//EN"
 "http://www.w3.org/TR/2001/REC-SVG-20010904/DTD/svg10.dtd">
<svg version="1.0" xmlns="http://www.w3.org/2000/svg"
 width="300.000000pt" height="240.000000pt" viewBox="0 0 300.000000 240.000000"
 preserveAspectRatio="xMidYMid meet">
<metadata>
Created by potrace 1.10, written by Peter Selinger 2001-2011
</metadata>
<g transform="translate(0.000000,240.000000) scale(0.100000,-0.100000)"
fill="#ef6231" stroke="none">
<path d="M1289 1843 c-122 -125 -156 -173 -189 -269 -24 -67 -28 -196 -10
-266 33 -119 130 -243 236 -300 62 -34 160 -58 236 -58 l57 0 -148 145 c-185
181 -206 216 -206 335 0 104 18 142 110 240 58 62 85 112 85 159 0 25 -22 87
-39 110 l-17 22 -115 -118z m141 -21 c0 -40 -17 -68 -89 -147 -78 -86 -105
-150 -104 -251 0 -112 26 -157 176 -308 135 -136 139 -151 29 -122 -129 34
-227 112 -286 229 -78 153 -65 324 35 472 15 22 69 81 120 130 l92 90 13 -30
c7 -16 13 -45 14 -63z"/>
<path d="M1624 1630 l-200 -200 66 -65 65 -65 130 130 c71 72 133 130 136 130
14 0 31 -105 26 -159 -6 -71 -32 -123 -96 -193 l-50 -55 64 -63 64 -63 64 65
c75 77 112 145 133 252 19 89 11 172 -25 266 -22 59 -96 158 -146 196 l-31 23
-200 -199z m233 135 c34 -24 92 -109 118 -172 31 -77 38 -145 25 -229 -13 -84
-44 -152 -98 -221 -55 -69 -75 -74 -118 -32 -19 18 -34 38 -34 44 0 6 18 31
40 55 66 73 85 122 85 222 0 73 -3 91 -21 115 -12 15 -29 29 -38 31 -11 2 -61
-40 -135 -112 -65 -64 -123 -116 -128 -116 -5 0 -27 18 -48 40 l-40 41 175
174 c96 96 180 175 185 175 6 0 20 -7 32 -15z"/>
<path d="M625 766 c-32 -32 -40 -69 -25 -107 16 -38 46 -59 86 -59 43 0 94 43
94 79 0 26 -2 27 -47 25 -41 -2 -48 -5 -51 -24 -3 -18 0 -21 18 -15 16 5 21 3
18 -6 -7 -22 -45 -22 -67 0 -27 27 -26 34 3 68 21 24 26 26 50 15 26 -11 56
-7 56 9 0 16 -45 39 -78 39 -21 0 -41 -8 -57 -24z"/>
<path d="M850 696 c0 -89 1 -96 20 -96 18 0 20 7 20 85 0 47 1 88 3 93 1 4 -8
8 -20 10 -22 3 -23 1 -23 -92z"/>
<path d="M950 770 c0 -15 7 -20 25 -20 24 0 25 -2 25 -75 0 -73 1 -75 25 -75
24 0 25 2 25 76 0 72 1 75 23 72 16 -2 23 3 25 20 3 21 0 22 -72 22 -69 0 -76
-2 -76 -20z"/>
<path d="M1160 695 c0 -88 1 -95 20 -95 16 0 20 7 20 30 0 20 5 30 15 30 8 0
21 -13 30 -30 11 -22 23 -30 41 -30 l26 0 -20 34 c-18 30 -19 37 -7 53 39 51
1 103 -75 103 l-50 0 0 -95z m95 30 c0 -14 -8 -21 -27 -23 -24 -3 -28 0 -28
23 0 23 4 26 28 23 19 -2 27 -9 27 -23z"/>
<path d="M1367 698 l2 -93 60 -3 c56 -3 61 -1 61 18 0 17 -6 20 -40 20 -34 0
-40 3 -40 21 0 17 5 20 33 17 27 -2 33 1 35 20 3 19 -1 22 -32 22 -25 0 -36 4
-36 15 0 11 11 15 40 15 33 0 40 3 40 20 0 18 -7 20 -62 20 l-63 0 2 -92z"/>
<path d="M1540 782 c0 -4 13 -46 28 -92 25 -74 32 -85 54 -88 23 -3 27 3 57
87 17 49 31 92 31 96 0 3 -11 5 -24 5 -20 0 -26 -8 -38 -52 -8 -28 -19 -53
-24 -55 -6 -2 -17 21 -24 52 -11 47 -16 55 -37 55 -12 0 -23 -4 -23 -8z"/>
<path d="M1770 695 c0 -92 1 -95 23 -95 21 0 22 3 22 95 0 92 -1 95 -22 95
-22 0 -23 -3 -23 -95z"/>
<path d="M1890 695 l0 -95 60 0 c53 0 60 2 60 19 0 16 -8 20 -37 23 -47 4 -53
31 -8 36 57 7 56 42 -1 42 -48 0 -40 24 9 28 29 3 37 7 37 23 0 17 -7 19 -60
19 l-60 0 0 -95z"/>
<path d="M2070 778 c0 -7 11 -49 24 -93 21 -72 26 -80 50 -83 16 -2 26 1 26
10 0 27 21 88 30 88 6 0 10 -6 10 -12 0 -7 5 -30 11 -50 8 -31 15 -38 34 -38
20 0 26 7 35 43 6 23 18 64 26 91 8 27 14 51 14 53 0 2 -11 3 -24 3 -21 0 -25
-6 -31 -42 -4 -24 -11 -50 -15 -58 -10 -18 -15 -9 -28 55 -6 33 -12 41 -33 43
-24 3 -27 -2 -38 -54 -14 -63 -25 -61 -38 6 -7 36 -13 46 -31 48 -13 2 -22 -2
-22 -10z"/>
<path d="M2406 771 c-34 -38 -10 -75 69 -105 6 -2 5 -9 -3 -17 -10 -11 -16
-11 -33 -1 -21 13 -59 8 -59 -8 0 -16 44 -40 73 -40 47 0 67 17 67 56 0 32 -4
37 -46 56 -34 15 -43 23 -35 31 9 9 16 9 29 0 12 -7 24 -8 36 -1 17 9 17 11 0
29 -22 25 -76 25 -98 0z"/>
</g>
</svg>
