<?xml version="1.0" encoding="UTF-8"?>
<svg xmlns="http://www.w3.org/2000/svg" viewBox="0 0 420.44 315.51">
  <defs>
    <style>
      .cls-1 {
        letter-spacing: 0em;
      }

      .cls-2 {
        letter-spacing: .02em;
      }

      .cls-3 {
        font-family: AcuminConcept-Bold, 'Acumin Variable Concept';
        font-size: 68px;
        font-variation-settings: 'wght' 700, 'wdth' 100, 'slnt' 0;
        font-weight: 700;
      }

      .cls-3, .cls-4 {
        fill: #ef4136;
      }

      .cls-5 {
        fill: #f15a29;
      }

      .cls-6 {
        letter-spacing: .02em;
      }

      .cls-7 {
        letter-spacing: 0em;
      }

      .cls-8 {
        letter-spacing: 0em;
      }

      .cls-9 {
        letter-spacing: 0em;
      }
    </style>
  </defs>
  <g id="Layer_1" data-name="Layer 1">
    <text class="cls-3" transform="translate(0 297.69)"><tspan class="cls-8" x="0" y="0">G</tspan><tspan class="cls-7" x="51.13" y="0">I</tspan><tspan x="73.1" y="0">T</tspan><tspan class="cls-9" x="113.08" y="0">R</tspan><tspan class="cls-2" x="158.44" y="0">E</tspan><tspan class="cls-8" x="202.16" y="0">VI</tspan><tspan class="cls-6" x="269.14" y="0">E</tspan><tspan class="cls-1" x="312.59" y="0">WS</tspan></text>
  </g>
  <g id="Layer_2" data-name="Layer 2">
    <path class="cls-5" d="m177.38,0c-9.64,4.49-39.17,19.74-57.46,54.75-20.41,39.08-12.89,76.11-10.62,85.71,3.33,10.85,9.92,26.71,23.5,41.55,33.1,36.17,80.27,36.29,89.35,36.14-19.75-19.96-39.49-39.91-59.24-59.87-7.54-7.62-12.65-15.99-15.23-27.43-4.9-21.76,5.52-41.23,10.97-49.88,7.56-9.74,15.13-19.48,22.69-29.22,0,0,17.5-29.08-3.96-51.75Z"/>
    <path class="cls-4" d="m181.14,113.77l27.81,29.21,57.22-56.42s28.74,44.08-25.41,86.63l27.21,27.41s103.38-77.9.04-171.33l-86.87,84.5Z"/>
  </g>
</svg>